<svg width="27" height="28" viewBox="0 0 27 28" fill="none" xmlns="http://www.w3.org/2000/svg">
<path fill-rule="evenodd" clip-rule="evenodd" d="M15.9165 14.5054H24.4625V25.7803C24.4625 26.4685 23.9275 27.0264 23.2385 27.0264H17.1405C16.4645 27.0264 15.9165 26.4562 15.9165 25.7803V14.5054ZM2.48751 14.5054H11.0335V25.7803C11.0335 26.4685 10.4985 27.0264 9.80851 27.0264H3.71151C3.03551 27.0264 2.48751 26.4562 2.48751 25.7803V14.5054ZM12.6135 0.36385C13.0885 -0.124355 13.8665 -0.118201 14.3365 0.36385L26.4015 12.7372C27.3535 13.7136 27.0295 14.5054 25.6775 14.5054H1.27251C-0.0794876 14.5054 -0.408487 13.7187 0.548513 12.7372L12.6135 0.36385ZM15.9165 19.5136C15.9105 18.811 15.3615 18.2623 14.6845 18.2623H12.2655C11.5785 18.2623 11.0395 18.8213 11.0335 19.5136V14.5054H15.9165V19.5136Z" fill="#3C3C3B"/>
</svg>
