<?xml version="1.0" encoding="UTF-8"?>
<svg id="Camada_2" data-name="Camada 2" xmlns="http://www.w3.org/2000/svg" viewBox="0 0 128.41 92.48">
  <defs>
    <style>
      .cls-1 {
        fill: #414042;
      }
    </style>
  </defs>
  <g id="Camada_1-2" data-name="Camada 1">
    <g>
      <path class="cls-1" d="M38.47,0C17.22,0,0,12.85,0,28.69c0,9.07,5.64,17.16,14.45,22.42l22.38,17.36v-11.1c.54.02,1.09.03,1.62.03,3.75,0,7.37-.4,10.8-1.15-.02-.12-.03-.23-.05-.35-.12-.99-.18-2.02-.18-3.03,0-6.61,2.66-12.89,7.69-18.22,4.8-5.06,11.4-8.89,19.09-11.03.17-.05.32-.09.49-.14C73.01,10.13,57.33,0,38.47,0ZM41.47,43.61h-7.07v-6.94h7.07v6.94ZM48.26,22.33c-.18.66-.43,1.25-.76,1.8-.34.54-.72,1.04-1.16,1.48-.46.46-.95.87-1.48,1.25-.54.43-1.06.81-1.53,1.18s-.89.73-1.22,1.13c-.34.38-.6.83-.8,1.3-.2.47-.29,1.06-.29,1.71v1.1h-6.16v-1.1c0-1.62.28-3.04.83-4.28.55-1.24,1.47-2.31,2.72-3.24.46-.34.89-.66,1.3-.96.43-.32.81-.64,1.15-.96.35-.34.63-.69.84-1.06.21-.38.32-.78.32-1.24,0-.93-.38-1.64-1.13-2.1-.75-.46-1.61-.7-2.57-.7-.69,0-1.33.09-1.94.28-.6.18-1.15.41-1.65.7-.49.29-.95.58-1.35.9s-.75.61-1.01.89l-3.96-4.19c.4-.44.9-.93,1.53-1.47.63-.52,1.38-1.01,2.23-1.47.86-.44,1.84-.83,2.92-1.13,1.1-.31,2.32-.44,3.67-.44s2.68.18,3.87.57c1.21.38,2.23.92,3.1,1.65.87.72,1.56,1.61,2.05,2.63.49,1.04.75,2.2.75,3.49.02.86-.08,1.62-.26,2.28Z"/>
      <path class="cls-1" d="M89.94,24.17c-4.74,0-9.28.64-13.48,1.8-14.61,4.07-24.99,14.58-24.99,26.89,0,.92.06,1.84.17,2.72,1.84,14.56,18.28,25.97,38.3,25.97.55,0,1.09-.02,1.62-.03v10.95l16.14-12.51,2.26-1.76,3.2-2.48c9.27-5.25,15.25-13.54,15.25-22.88-.02-15.83-17.24-28.68-38.47-28.68ZM73.83,56.84c-2.98,0-5.38-2.42-5.38-5.38s2.42-5.38,5.38-5.38,5.38,2.42,5.38,5.38-2.4,5.38-5.38,5.38ZM89.94,56.84c-2.98,0-5.38-2.42-5.38-5.38s2.42-5.38,5.38-5.38,5.38,2.42,5.38,5.38-2.42,5.38-5.38,5.38ZM106.03,56.84c-2.97,0-5.38-2.42-5.38-5.38s2.42-5.38,5.38-5.38,5.38,2.42,5.38,5.38-2.4,5.38-5.38,5.38Z"/>
    </g>
  </g>
</svg>