<?xml version="1.0" encoding="UTF-8"?>
<svg id="Camada_2" data-name="Camada 2" xmlns="http://www.w3.org/2000/svg" xmlns:xlink="http://www.w3.org/1999/xlink" viewBox="0 0 78.64 78.87">
  <defs>
    <style>
      .cls-1 {
        fill: url(#radial-gradient);
      }

      .cls-2 {
        fill: url(#linear-gradient);
        opacity: .35;
      }

      .cls-3 {
        fill: #414042;
      }
    </style>
    <radialGradient id="radial-gradient" cx="39.32" cy="44.59" fx="39.32" fy="44.59" r="39.32" gradientTransform="translate(0 -5.29)" gradientUnits="userSpaceOnUse">
      <stop offset=".58" stop-color="#000" stop-opacity="0"/>
      <stop offset=".69" stop-color="#000" stop-opacity=".8"/>
      <stop offset=".95" stop-color="#000" stop-opacity="0"/>
    </radialGradient>
    <linearGradient id="linear-gradient" x1="34.33" y1="43.77" x2="65.56" y2="12.54" gradientUnits="userSpaceOnUse">
      <stop offset="0" stop-color="#fff" stop-opacity=".3"/>
      <stop offset="1" stop-color="#fff" stop-opacity=".1"/>
    </linearGradient>
  </defs>
  <g id="Camada_1-2" data-name="Camada 1">
    <g>
      <ellipse class="cls-1" cx="39.32" cy="39.44" rx="39.32" ry="39.44"/>
      <path class="cls-3" d="M48.36,37.13c0,3.37-2.73,6.11-6.09,6.11s-6.09-2.73-6.09-6.11,2.73-6.11,6.09-6.11,6.09,2.73,6.09,6.11ZM57.14,29.72c.09,1.93.11,2.51.11,7.4s-.02,5.47-.11,7.4c-.08,1.79-.38,2.76-.63,3.4-.33.86-.73,1.47-1.37,2.11-.64.64-1.25,1.04-2.1,1.37-.64.25-1.61.55-3.39.63-1.93.09-2.5.11-7.38.11s-5.46-.02-7.38-.11c-1.78-.08-2.75-.38-3.39-.63-.85-.33-1.46-.73-2.1-1.37-.64-.64-1.04-1.25-1.37-2.11-.25-.65-.55-1.62-.63-3.4-.09-1.93-.11-2.51-.11-7.4s.02-5.47.11-7.4c.08-1.79.38-2.76.63-3.4.33-.86.73-1.47,1.37-2.11.64-.64,1.25-1.04,2.1-1.37.64-.25,1.61-.55,3.39-.63,1.93-.09,2.5-.11,7.38-.11s5.46.02,7.38.11c1.78.08,2.75.38,3.39.63.85.33,1.46.73,2.1,1.37.64.64,1.04,1.25,1.37,2.11.25.65.55,1.62.63,3.4ZM51.65,37.13c0-5.2-4.2-9.41-9.38-9.41s-9.38,4.21-9.38,9.41,4.2,9.41,9.38,9.41,9.38-4.21,9.38-9.41ZM54.22,27.35c0-1.21-.98-2.2-2.19-2.2s-2.19.98-2.19,2.2.98,2.2,2.19,2.2,2.19-.98,2.19-2.2ZM75.41,36.2c0,18.36-14.84,33.24-33.14,33.24S9.13,54.55,9.13,36.2,23.97,2.96,42.27,2.96s33.14,14.88,33.14,33.24ZM60.54,37.13c0-4.98-.02-5.6-.11-7.55-.09-1.95-.4-3.28-.85-4.45-.47-1.2-1.09-2.23-2.11-3.25s-2.03-1.65-3.24-2.11c-1.16-.45-2.49-.76-4.43-.85-1.95-.09-2.57-.11-7.53-.11s-5.58.02-7.53.11c-1.94.09-3.27.4-4.43.85-1.2.47-2.22,1.09-3.24,2.11-1.02,1.02-1.64,2.04-2.11,3.25-.45,1.17-.76,2.5-.85,4.45-.09,1.95-.11,2.58-.11,7.55s.02,5.6.11,7.55c.09,1.95.4,3.28.85,4.45.47,1.2,1.09,2.23,2.11,3.25,1.02,1.02,2.03,1.65,3.24,2.11,1.16.45,2.49.76,4.43.85,1.95.09,2.57.11,7.53.11s5.58-.02,7.53-.11c1.94-.09,3.27-.4,4.43-.85,1.2-.47,2.22-1.09,3.24-2.11,1.02-1.02,1.64-2.04,2.11-3.25.45-1.17.76-2.5.85-4.45.09-1.95.11-2.58.11-7.55Z"/>
      <path class="cls-2" d="M42.27,2.96c-9.16,0-17.46,3.73-23.46,9.76,2.06,23.94,22.07,42.73,46.48,42.73,1.39,0,2.77-.07,4.13-.19,3.77-5.4,6-11.97,6-19.06,0-18.36-14.84-33.24-33.14-33.24Z"/>
    </g>
  </g>
</svg>