<?xml version="1.0" encoding="UTF-8"?>
<svg id="Camada_2" data-name="Camada 2" xmlns="http://www.w3.org/2000/svg" viewBox="0 0 67.69 94.32">
  <defs>
    <style>
      .cls-1 {
        fill: #414042;
      }
    </style>
  </defs>
  <g id="Camada_1-2" data-name="Camada 1">
    <path class="cls-1" d="M33.85,0C15.15,0,0,14.4,0,32.16c0,6.82,2.26,13.46,6.42,18.86.12.69.35,1.36.69,1.99l20.1,37.44c2.08,3.67,6.74,4.96,10.41,2.88,1.2-.68,2.2-1.68,2.88-2.88l20.1-37.51c.33-.62.56-1.29.69-1.99,4.17-5.41,6.43-12.04,6.42-18.86,0-17.69-15.15-32.09-33.85-32.09ZM32.99,45.77c-7.54,0-13.65-5.81-13.65-12.97s6.12-12.97,13.65-12.97,13.65,5.81,13.65,12.97-6.12,12.97-13.65,12.97Z"/>
  </g>
</svg>