<?xml version="1.0" encoding="UTF-8"?>
<svg id="Camada_2" data-name="Camada 2" xmlns="http://www.w3.org/2000/svg" xmlns:xlink="http://www.w3.org/1999/xlink" viewBox="0 0 78.64 78.87">
  <defs>
    <style>
      .cls-1 {
        fill: url(#radial-gradient);
      }

      .cls-2 {
        fill: url(#linear-gradient);
        opacity: .35;
      }

      .cls-3 {
        fill: #414042;
      }
    </style>
    <radialGradient id="radial-gradient" cx="39.32" cy="44.6" fx="39.32" fy="44.6" r="39.32" gradientTransform="translate(0 -5.29)" gradientUnits="userSpaceOnUse">
      <stop offset=".58" stop-color="#000" stop-opacity="0"/>
      <stop offset=".69" stop-color="#000" stop-opacity=".8"/>
      <stop offset=".95" stop-color="#000" stop-opacity="0"/>
    </radialGradient>
    <linearGradient id="linear-gradient" x1="34.05" y1="45.62" x2="65.27" y2="14.39" gradientUnits="userSpaceOnUse">
      <stop offset="0" stop-color="#fff" stop-opacity=".3"/>
      <stop offset="1" stop-color="#fff" stop-opacity=".1"/>
    </linearGradient>
  </defs>
  <g id="Camada_1-2" data-name="Camada 1">
    <ellipse class="cls-1" cx="39.32" cy="39.44" rx="39.32" ry="39.44"/>
    <path class="cls-3" d="M74.85,38.19c0,18.36-14.84,33.24-33.14,33.24S8.56,56.54,8.56,38.19,23.4,4.95,41.7,4.95s33.14,14.88,33.14,33.24ZM55.19,27.05c-.26-.13-.51-.28-.76-.44-.71-.47-1.37-1.03-1.95-1.65-1.45-1.66-1.99-3.34-2.19-4.52h0c-.17-.98-.1-1.61-.09-1.61h-6.61v25.56c0,.34,0,.68-.01,1.02,0,.04,0,.08,0,.13,0,.02,0,.04,0,.06h0c-.14,1.88-1.2,3.55-2.82,4.47-.83.47-1.78.72-2.73.72-3.08,0-5.58-2.51-5.58-5.61s2.5-5.61,5.58-5.61c.58,0,1.16.09,1.72.27v-6.73c-3.39-.44-6.82.56-9.45,2.77-1.14.99-2.1,2.17-2.83,3.49-.28.48-1.33,2.41-1.46,5.55-.08,1.78.45,3.63.71,4.39v.02c.16.45.78,1.98,1.79,3.27.82,1.04,1.78,1.95,2.86,2.7v-.02l.02.02c3.2,2.17,6.75,2.03,6.75,2.03.61-.02,2.67,0,5.01-1.11,2.59-1.23,4.07-3.06,4.07-3.06.94-1.09,1.69-2.34,2.22-3.68.6-1.57.8-3.46.8-4.21v-13.56c.08.05,1.15.75,1.15.75,0,0,1.54.99,3.94,1.63,1.72.46,4.04.55,4.04.55v-6.56c-.81.09-2.46-.17-4.15-1.01Z"/>
    <path class="cls-2" d="M41.99,4.81c-9.16,0-17.46,3.73-23.46,9.76,2.06,23.94,22.07,42.73,46.48,42.73,1.39,0,2.77-.07,4.13-.19,3.78-5.4,6-11.97,6-19.06,0-18.36-14.84-33.24-33.14-33.24Z"/>
  </g>
</svg>