<?xml version="1.0" encoding="UTF-8"?>
<svg id="Camada_2" data-name="Camada 2" xmlns="http://www.w3.org/2000/svg" viewBox="0 0 233.02 110.8">
  <defs>
    <style>
      .cls-1 {
        fill-rule: evenodd;
      }

      .cls-1, .cls-2 {
        fill: #414042;
      }
    </style>
  </defs>
  <g id="Camada_1-2" data-name="Camada 1">
    <g>
      <polygon class="cls-1" points="104.04 110.8 104.04 50.84 79.4 50.96 61.52 83.79 38.29 50.96 13.77 50.84 13.77 110.8 36.6 110.8 36.6 91.18 46.02 110.8 71.67 110.8 81.09 91.18 81.09 110.8 104.04 110.8"/>
      <rect class="cls-2" x="109.44" y="50.84" width="22.83" height="59.96"/>
      <path class="cls-1" d="M211.5,38.81L233.02,2.63h-25.31l-15.04,25.15h18.84v11.03h0ZM206.71,46.85h-25.45s-9.49,15.86-9.49,15.86l-9.06-11.75h-28.26l22.95,30.28-22.95,29.56h29.59l7.73-10.17,7.73,10.17h29.59l-22.75-29.71,20.36-34.24Z"/>
      <polygon class="cls-1" points="47 10.92 47 0 0 0 0 10.92 14.75 10.92 14.75 42.75 30.96 42.75 30.96 10.92 47 10.92"/>
      <path class="cls-1" d="M87.91,29.07c0,1.29-.52,2.06-1.54,2.49-.6.26-1.71.34-3.17.34h-12.26c-1.54,0-2.57-.09-3.17-.34-1.03-.43-1.54-1.2-1.54-2.49v-15.22c0-1.29.52-2.15,1.54-2.5.69-.26,1.72-.34,3.17-.34h12.26c1.46,0,2.57.09,3.17.34,1.03.43,1.54,1.2,1.54,2.5v15.22h0ZM104.04,32.6V10.32c0-3.1-.69-5.42-2.06-6.88-1.29-1.46-3.52-2.49-6.52-2.92-1.8-.26-4.37-.34-7.72-.34h-21.53c-2.92,0-5.32.09-7.2.34-3.26.43-5.57,1.38-6.95,2.84-1.37,1.46-2.06,3.78-2.06,6.97v22.28c0,3.18.69,5.5,2.14,6.97,1.37,1.46,3.69,2.5,6.86,2.92,1.46.17,3.86.26,7.2.26h21.53c3.35,0,5.92-.09,7.72-.34,3-.43,5.23-1.46,6.6-2.92,1.29-1.46,1.97-3.79,1.97-6.88Z"/>
      <polygon class="cls-1" points="207.38 31.91 185.42 31.91 185.42 0 169.13 0 169.13 42.75 207.38 42.75 207.38 31.91"/>
      <path class="cls-1" d="M147.08,29.07c0,1.29-.52,2.06-1.54,2.49-.6.26-1.71.34-3.17.34h-12.26c-1.54,0-2.57-.09-3.17-.34-1.03-.43-1.54-1.2-1.54-2.49v-15.22c0-1.29.52-2.15,1.54-2.5.69-.26,1.72-.34,3.17-.34h12.26c1.46,0,2.57.09,3.17.34,1.03.43,1.54,1.2,1.54,2.5v15.22h0ZM163.2,32.6V10.32c0-3.1-.69-5.42-2.06-6.88-1.29-1.46-3.52-2.49-6.52-2.92-1.8-.26-4.37-.34-7.72-.34h-21.53c-2.92,0-5.32.09-7.2.34-3.26.43-5.57,1.38-6.95,2.84-1.37,1.46-2.06,3.78-2.06,6.97v22.28c0,3.18.69,5.5,2.14,6.97,1.37,1.46,3.69,2.5,6.86,2.92,1.46.17,3.86.26,7.2.26h21.53c3.35,0,5.92-.09,7.72-.34,3-.43,5.23-1.46,6.6-2.92,1.29-1.46,1.97-3.79,1.97-6.88Z"/>
    </g>
  </g>
</svg>