<?xml version="1.0" encoding="UTF-8"?>
<svg id="Camada_2" data-name="Camada 2" xmlns="http://www.w3.org/2000/svg" xmlns:xlink="http://www.w3.org/1999/xlink" viewBox="0 0 78.64 78.87">
  <defs>
    <style>
      .cls-1 {
        fill: url(#radial-gradient);
      }

      .cls-2 {
        fill: url(#linear-gradient);
        opacity: .35;
      }

      .cls-3 {
        fill: #414042;
      }
    </style>
    <radialGradient id="radial-gradient" cx="39.32" cy="44.59" fx="39.32" fy="44.59" r="39.32" gradientTransform="translate(0 -5.29)" gradientUnits="userSpaceOnUse">
      <stop offset=".58" stop-color="#000" stop-opacity="0"/>
      <stop offset=".69" stop-color="#000" stop-opacity=".8"/>
      <stop offset=".95" stop-color="#000" stop-opacity="0"/>
    </radialGradient>
    <linearGradient id="linear-gradient" x1="34.33" y1="43.77" x2="65.56" y2="12.54" gradientUnits="userSpaceOnUse">
      <stop offset="0" stop-color="#fff" stop-opacity=".3"/>
      <stop offset="1" stop-color="#fff" stop-opacity=".1"/>
    </linearGradient>
  </defs>
  <g id="Camada_1-2" data-name="Camada 1">
    <g>
      <ellipse class="cls-1" cx="39.32" cy="39.44" rx="39.32" ry="39.44"/>
      <path class="cls-3" d="M38.38,30.44l10.18,5.36-10.18,5.33v-10.69ZM75.41,36.2c0,18.36-14.84,33.24-33.14,33.24S9.13,54.55,9.13,36.2,23.97,2.96,42.27,2.96s33.14,14.88,33.14,33.24ZM61.11,34.75c0-3.08-.38-6.16-.38-6.16,0,0-.37-2.62-1.5-3.78-1.43-1.52-3.04-1.52-3.77-1.61-5.27-.39-13.18-.39-13.18-.39h-.02s-7.91,0-13.18.39c-.74.09-2.34.1-3.78,1.61-1.13,1.15-1.5,3.78-1.5,3.78,0,0-.38,3.08-.38,6.16v2.89c0,3.08.38,6.16.38,6.16,0,0,.37,2.62,1.5,3.78,1.43,1.52,3.32,1.47,4.15,1.63,3.01.29,12.81.38,12.81.38,0,0,7.92-.01,13.19-.4.74-.09,2.34-.1,3.77-1.61,1.13-1.15,1.5-3.78,1.5-3.78,0,0,.38-3.08.38-6.16v-2.89Z"/>
      <path class="cls-2" d="M42.27,2.96c-9.16,0-17.46,3.73-23.46,9.76,2.06,23.94,22.07,42.73,46.48,42.73,1.39,0,2.77-.07,4.13-.19,3.78-5.4,6-11.97,6-19.06,0-18.36-14.84-33.24-33.14-33.24Z"/>
    </g>
  </g>
</svg>