<?xml version="1.0" encoding="UTF-8"?>
<svg id="Camada_2" data-name="Camada 2" xmlns="http://www.w3.org/2000/svg" viewBox="0 0 103.02 146.96">
  <defs>
    <style>
      .cls-1 {
        fill: #3c3c3d;
      }
    </style>
  </defs>
  <g id="Camada_1-2" data-name="Camada 1">
    <path class="cls-1" d="M94.6,81.35c-3.3,0-5.59,1.67-6.96,4.28v-1.77c0-5.09-4.11-9.21-9.19-9.21-4.41,0-8.08,3.11-8.97,7.27v-7.27c0-5.07-4.1-9.17-9.15-9.17-3.05,0-5.74,1.51-7.39,3.81v-26.45c0-4.72-3.84-8.56-8.56-8.56h0c-4.74,0-8.57,3.85-8.55,8.59.07,16.3.19,50.9-.04,63.74-2.7-4.6-7.52-12.56-11.26-17.92-2.97-4.26-8.01-6.47-12.65-4.15-4.31,2.16-6.3,7.23-4.63,11.75,7.72,20.87,11.25,30.38,16.46,43.76,1.61,4.15,5.61,6.89,10.06,6.89h52.2c5.3,0,9.82-3.84,10.65-9.07,2.78-17.51,4.54-31.23,6.15-43.2,1.53-11.4-4.2-13.34-8.16-13.34h0ZM48.1,0h-8.09v18.87h8.09V0ZM29.15,23.28l-12.55-12.55-5.72,5.72,12.55,12.55,5.72-5.72ZM18.87,39.8H0v8.09h18.87v-8.09ZM69.03,48.1h18.87v-8.09h-18.87v8.09ZM77.17,16.6l-5.72-5.72-12.55,12.55,5.72,5.72,12.55-12.55Z"/>
  </g>
</svg>