<?xml version="1.0" encoding="UTF-8"?>
<svg id="Camada_2" data-name="Camada 2" xmlns="http://www.w3.org/2000/svg" viewBox="0 0 160.23 149.54">
  <defs>
    <style>
      .cls-1 {
        fill: #3c3c3d;
      }
    </style>
  </defs>
  <g id="Camada_1-2" data-name="Camada 1">
    <path class="cls-1" d="M118.52,149.54c-5.5,0-11.2-1.14-16.7-3.8l-57.51-27.14c-3.42-1.71-6.07-4.56-7.4-8.16-1.14-3.61-.95-7.59.57-11.01.19-.57.76-1.14,1.52-1.52,5.88-3.61,17.65-5.31,24.48-2.28l-26.57-42.7c-2.09-3.23-2.66-7.21-1.9-10.82.76-3.61,3.23-7.02,6.45-8.92h0c6.64-3.99,15.75-2.09,19.74,4.74l11.77,19.17c.95-.95,2.09-2.09,3.23-2.66,4.37-2.66,9.68-2.85,13.86-.57,1.14-2.28,2.85-3.99,5.12-5.5,4.37-2.66,9.68-2.85,13.86-.57,1.14-2.28,2.85-3.99,5.12-5.5,3.42-2.09,7.59-2.66,11.39-1.71,3.61.95,6.64,3.23,8.54,6.45l21.07,38.34c10.25,18.79,3.61,39.1-7.59,51.05-7.97,8.35-18.41,13.1-29.04,13.1ZM43.55,103.42c-.38,1.52-.38,3.04.19,4.56.57,1.9,2.09,3.23,3.61,3.99l57.51,27.14c15.56,7.4,29.8.57,37.96-7.97,9.3-10.06,15.18-27.14,6.45-42.7l-21.26-38.53c-.76-1.52-2.28-2.66-3.99-3.04-2.09-.57-3.99-.19-5.88.76-2.09,1.14-3.23,3.23-3.42,5.69-.19,1.52-.95,2.66-2.47,3.23-1.52.38-2.85,0-3.8-.95-2.28-2.66-6.26-3.23-9.3-1.52-2.09,1.14-3.23,3.23-3.42,5.69-.19,1.52-.95,2.66-2.47,3.23-1.52.38-2.85,0-3.8-.95-2.28-2.66-6.26-3.23-9.3-1.52-1.71.95-2.85,2.66-3.23,4.74-.38,1.52-1.52,2.47-2.85,2.85-1.52.19-2.85-.38-3.61-1.71l-15.18-24.48c-2.09-3.42-6.45-4.56-10.06-2.28-1.71.95-2.85,2.66-3.23,4.56-.38,1.9-.19,3.8.76,5.5l32.83,52.95c.76,1.52.57,3.04-.38,4.37-.95,1.14-2.85,1.71-4.37.76l-10.25-5.88c-4.18-1.52-12.53-.76-17.08,1.52Z"/>
    <path class="cls-1" d="M10.71,74.95c-.95,0-1.9-.57-2.47-1.52-.76-1.33-.19-3.04,1.14-3.8l19.36-10.63c1.33-.76,3.04-.19,3.8,1.14s.19,3.04-1.14,3.8l-19.36,10.63c-.38.19-.76.38-1.33.38Z"/>
    <path class="cls-1" d="M73.15,40.59c-.95,0-1.9-.57-2.47-1.52-.76-1.33-.19-3.04,1.14-3.8l19.36-10.63c1.33-.76,3.04-.19,3.8,1.14s.19,3.04-1.14,3.8l-19.36,10.63c-.38.19-.95.38-1.33.38Z"/>
    <path class="cls-1" d="M58.54,27.12c-.19,0-.57,0-.76-.19-1.52-.38-2.47-2.09-1.9-3.61l6.07-21.26c.38-1.52,2.09-2.47,3.61-1.9,1.52.38,2.47,2.09,1.9,3.61l-6.07,21.26c-.38,1.33-1.52,2.09-2.85,2.09Z"/>
    <path class="cls-1" d="M36.9,29.21c-.95,0-1.9-.57-2.47-1.33l-11.58-18.79c-.76-1.33-.38-3.04.95-3.99,1.33-.95,3.04-.38,3.99.95l11.58,18.79c.76,1.33.38,3.04-.95,3.99-.57.19-.95.38-1.52.38Z"/>
    <path class="cls-1" d="M24.38,44.2h-.76l-21.45-5.12c-1.52-.38-2.47-1.9-2.09-3.42s1.9-2.47,3.42-2.09l21.45,5.12c1.52.38,2.47,1.9,2.09,3.42-.19,1.14-1.33,2.09-2.66,2.09Z"/>
  </g>
</svg>