<?xml version="1.0" encoding="UTF-8"?>
<svg id="Camada_2" data-name="Camada 2" xmlns="http://www.w3.org/2000/svg" viewBox="0 0 182 147.88">
  <defs>
    <style>
      .cls-1 {
        fill: #3c3c3d;
      }
    </style>
  </defs>
  <g id="Camada_1-2" data-name="Camada 1">
    <path class="cls-1" d="M179.16,0H2.84C1.27,0,0,1.27,0,2.84v99.53c0,1.57,1.27,2.84,2.84,2.84h72.63l-.09,14.22h-14.09c-8.32,0-14.91.02-19.95,2.43-5.89,2.81-8.64,8.41-8.64,17.62v5.55c0,1.57,1.27,2.84,2.84,2.84h110.91c1.57,0,2.84-1.27,2.84-2.84v-5.55c0-9.21-2.76-14.81-8.69-17.62-5.11-2.42-11.81-2.37-20.25-2.42h-13.83l.09-14.22h72.54c1.57,0,2.84-1.27,2.84-2.84V2.84c0-1.57-1.27-2.84-2.84-2.84ZM120.61,125.13c7.33,0,13.66.02,17.57,1.87,2.69,1.28,5.44,3.76,5.44,12.49v2.7H38.39v-2.7c0-8.73,2.73-11.21,5.4-12.49,3.88-1.85,9.89-1.87,17.49-1.87h59.32ZM100.84,119.44h-19.78l.09-14.22h19.78l-.09,14.22ZM176.32,99.53H5.69V5.69h170.63v93.85Z"/>
    <path class="cls-1" d="M14.22,93.85h153.57c1.57,0,2.84-1.27,2.84-2.84V14.22c0-1.57-1.27-2.84-2.84-2.84H14.22c-1.57,0-2.84,1.27-2.84,2.84v76.78c0,1.57,1.27,2.84,2.84,2.84ZM164.94,88.16H17.06v-5.69h147.88v5.69ZM17.06,17.06h147.88v59.72H17.06V17.06Z"/>
    <circle class="cls-1" cx="127.97" cy="25.59" r="2.84"/>
    <circle class="cls-1" cx="142.19" cy="25.59" r="2.84"/>
    <circle class="cls-1" cx="156.41" cy="25.59" r="2.84"/>
    <path class="cls-1" d="M96.69,29.86H25.59c-1.57,0-2.84,1.27-2.84,2.84s1.27,2.84,2.84,2.84h71.1c1.57,0,2.84-1.27,2.84-2.84s-1.27-2.84-2.84-2.84Z"/>
    <path class="cls-1" d="M76.78,44.08H25.59c-1.57,0-2.84,1.27-2.84,2.84s1.27,2.84,2.84,2.84h51.19c1.57,0,2.84-1.27,2.84-2.84s-1.27-2.84-2.84-2.84Z"/>
    <path class="cls-1" d="M59.72,58.3H25.59c-1.57,0-2.84,1.27-2.84,2.84s1.27,2.84,2.84,2.84h34.13c1.57,0,2.84-1.27,2.84-2.84s-1.27-2.84-2.84-2.84Z"/>
    <path class="cls-1" d="M128.84,47.02l2.91-3.11c1.39-1.46,1.74-3.62.88-5.44-.89-1.9-2.86-3.06-4.95-2.91l-17.64,1.01c-1.37.07-2.66.69-3.57,1.72-.87.98-1.32,2.26-1.24,3.57l1.13,18.01h0c.14,2.02,1.48,3.76,3.4,4.4,1.98.69,4.18.12,5.58-1.44l3.32-3.75,11.19,9.39c2.1,1.77,5.23,1.59,7.11-.42l3.9-4.16c.93-.98,1.42-2.31,1.33-3.66-.09-1.36-.73-2.62-1.77-3.49l-11.57-9.71ZM133.14,63.81l-11.2-9.4c-2.15-1.79-5.33-1.56-7.2.52l-2.79,3.15-1-15.86,15.43-.88-2.24,2.39c-.93.98-1.41,2.31-1.33,3.66.09,1.36.73,2.62,1.77,3.49l11.57,9.71-3.02,3.22Z"/>
  </g>
</svg>