<?xml version="1.0" encoding="UTF-8"?>
<svg id="Camada_2" data-name="Camada 2" xmlns="http://www.w3.org/2000/svg" viewBox="0 0 180.18 154.73">
  <defs>
    <style>
      .cls-1 {
        fill: #3c3c3d;
      }
    </style>
  </defs>
  <g id="Camada_1-2" data-name="Camada 1">
    <path class="cls-1" d="M15.57,0C7.03,0,0,7.04,0,15.58v104.21c0,8.53,7.03,15.57,15.57,15.57h48.27l.08,6.07c.03,2.93,2.43,5.28,5.35,5.25.91,0,1.8-.25,2.59-.7l15.81-9.04,8.8,15.17c1.47,2.52,4.71,3.38,7.23,1.91l15.23-8.73c2.54-1.46,3.41-4.7,1.96-7.23l-1.57-2.7h45.3c8.53,0,15.57-7.03,15.57-15.57V15.58c0-8.53-7.03-15.58-15.57-15.58H15.57ZM15.57,10.61h149.05c2.84,0,4.97,2.12,4.97,4.97v15.81H10.6v-15.81c0-2.84,2.12-4.97,4.97-4.97ZM22.21,15.29c-3.14.01-5.67,2.56-5.68,5.69,0,3.15,2.53,5.71,5.68,5.72,3.15.01,5.72-2.53,5.73-5.68,0-.01,0-.03,0-.04,0-3.15-2.57-5.7-5.73-5.69,0,0,0,0,0,0ZM37.82,15.29c-3.14.01-5.67,2.56-5.68,5.69,0,3.15,2.53,5.71,5.68,5.72,3.15.01,5.72-2.53,5.73-5.68,0-.01,0-.03,0-.04,0-3.15-2.57-5.7-5.73-5.69,0,0,0,0,0,0ZM53.43,15.29c-3.14.01-5.67,2.56-5.68,5.69,0,3.15,2.53,5.71,5.68,5.72,3.15.01,5.72-2.53,5.73-5.68,0-.01,0-.03,0-.04,0-3.15-2.57-5.7-5.73-5.69,0,0,0,0,0,0ZM10.6,41.98h158.98v77.8c0,2.84-2.12,4.97-4.97,4.97h-51.47l-1.07-1.83,18.35-10.53c2.54-1.45,3.42-4.69,1.97-7.23-.46-.8-1.11-1.46-1.9-1.93l-59.49-35.13c-1.65-.98-3.7-.99-5.36-.03-1.65.96-2.65,2.74-2.62,4.65l.68,52.03H15.57c-2.84,0-4.97-2.12-4.97-4.97V41.98ZM73.74,82.04l43.54,25.7-15.1,8.64c-2.54,1.46-3.42,4.69-1.96,7.23,0,0,0,0,0,.01l8.8,15.13-6.02,3.45-8.84-15.18c-1.47-2.5-4.68-3.35-7.19-1.91l-12.56,7.2-.67-50.27Z"/>
  </g>
</svg>