<?xml version="1.0" encoding="UTF-8"?>
<svg id="Camada_2" data-name="Camada 2" xmlns="http://www.w3.org/2000/svg" viewBox="0 0 642.9 645.02">
  <defs>
    <style>
      .cls-1 {
        fill: #575756;
      }
    </style>
  </defs>
  <g id="topo_home" data-name="topo home">
    <g>
      <path class="cls-1" d="M631.12,511.42l-149.44-93.59c-10.06-6.29-22.89-4.78-31.2,3.52l-50.32,50.32c-88.31-60.13-164.28-137.87-226.43-231.71l47.8-47.55c8.3-8.3,9.81-21.13,3.52-31.2L131.48,11.78C127.45,5.24,120.66.96,112.86.2c-7.55-1.01-15.1,1.76-20.63,7.04l-51.83,52.08C-1.36,101.09-11.93,165.24,14.24,218.83c.25.5,1.26,2.26,1.26,2.52l3.27,6.04c4.78,10.06,10.31,19.62,15.35,28.43,3.02,6.04,6.29,11.82,9.31,16.35,6.54,11.57,13.59,23.15,20.38,34.22,71.45,114.22,162.27,206.81,269.7,275.24,29.43,18.62,59.37,35.22,88.81,49.31,5.03,2.52,9.56,4.28,15.1,6.29,15.35,5.28,30.95,7.8,46.54,7.8,35.98,0,70.95-14.09,97.37-40.5l54.09-54.09c5.53-5.28,8.3-12.83,7.3-20.63-.75-7.55-5.03-14.34-11.57-18.37h0Z"/>
      <path class="cls-1" d="M321.42,4.79c-13.9,0-25.16,11.26-25.16,25.16s11.26,25.16,25.16,25.16c149.5,0,271.15,121.64,271.15,271.15,0,13.9,11.26,25.16,25.16,25.16s25.16-11.26,25.16-25.16C642.88,148.97,498.66,4.79,321.42,4.79Z"/>
      <path class="cls-1" d="M469.13,326.25c0,13.9,11.26,25.16,25.16,25.16s25.16-11.26,25.16-25.16c0-109.18-88.84-198.03-198.03-198.03-13.9,0-25.16,11.26-25.16,25.16s11.26,25.16,25.16,25.16c81.45,0,147.71,66.23,147.71,147.71Z"/>
    </g>
  </g>
</svg>