<?xml version="1.0" encoding="UTF-8"?>
<svg id="Camada_1" xmlns="http://www.w3.org/2000/svg" version="1.1" viewBox="0 0 500 500">
  <!-- Generator: Adobe Illustrator 29.8.2, SVG Export Plug-In . SVG Version: 2.1.1 Build 3)  -->
  <defs>
    <style>
      .st0 {
        fill: #3c3c3d;
      }
    </style>
  </defs>
  <path class="st0" d="M228.5,66.1H52.2c-1.6,0-2.8,1.3-2.8,2.8v99.5c0,1.6,1.3,2.8,2.8,2.8h72.6v14.2h-14.2c-8.3,0-14.9,0-19.9,2.4-5.9,2.8-8.6,8.4-8.6,17.6v5.5c0,1.6,1.3,2.8,2.8,2.8h110.9c1.6,0,2.8-1.3,2.8-2.8v-5.5c0-9.2-2.8-14.8-8.7-17.6-5.1-2.4-11.8-2.4-20.2-2.4h-13.8v-14.2h72.6c1.6,0,2.8-1.3,2.8-2.8v-99.5c0-1.6-1.3-2.8-2.8-2.8ZM170,191.2c7.3,0,13.7,0,17.6,1.9,2.7,1.3,5.4,3.8,5.4,12.5v2.7h-105.2v-2.7c0-8.7,2.7-11.2,5.4-12.5,3.9-1.9,9.9-1.9,17.5-1.9h59.3ZM150.2,185.6h-19.8v-14.2h19.9v14.2ZM225.7,165.7H55.1v-93.8h170.6v93.8Z"/>
  <path class="st0" d="M63.6,160h153.6c1.6,0,2.8-1.3,2.8-2.8v-76.8c0-1.6-1.3-2.8-2.8-2.8H63.6c-1.6,0-2.8,1.3-2.8,2.8v76.8c0,1.6,1.3,2.8,2.8,2.8ZM214.3,154.3H66.4v-5.7h147.9v5.7ZM66.4,83.2h147.9v59.7H66.4v-59.7Z"/>
  <circle class="st0" cx="177.3" cy="91.7" r="2.8"/>
  <circle class="st0" cx="191.6" cy="91.7" r="2.8"/>
  <circle class="st0" cx="205.8" cy="91.7" r="2.8"/>
  <path class="st0" d="M146.1,96h-71.1c-1.6,0-2.8,1.3-2.8,2.8s1.3,2.8,2.8,2.8h71.1c1.6,0,2.8-1.3,2.8-2.8s-1.3-2.8-2.8-2.8Z"/>
  <path class="st0" d="M126.2,110.2h-51.2c-1.6,0-2.8,1.3-2.8,2.8s1.3,2.8,2.8,2.8h51.2c1.6,0,2.8-1.3,2.8-2.8s-1.3-2.8-2.8-2.8Z"/>
  <path class="st0" d="M109.1,124.4h-34.1c-1.6,0-2.8,1.3-2.8,2.8s1.3,2.8,2.8,2.8h34.1c1.6,0,2.8-1.3,2.8-2.8s-1.3-2.8-2.8-2.8Z"/>
  <path class="st0" d="M178.2,113.1l2.9-3.1c1.4-1.5,1.7-3.6.9-5.4-.9-1.9-2.9-3.1-5-2.9l-17.6,1c-1.4,0-2.7.7-3.6,1.7-.9,1-1.3,2.3-1.2,3.6l1.1,18h0c.1,2,1.5,3.8,3.4,4.4,2,.7,4.2.1,5.6-1.4l3.3-3.7,11.2,9.4c2.1,1.8,5.2,1.6,7.1-.4l3.9-4.2c.9-1,1.4-2.3,1.3-3.7,0-1.4-.7-2.6-1.8-3.5l-11.6-9.7ZM182.5,129.9l-11.2-9.4c-2.2-1.8-5.3-1.6-7.2.5l-2.8,3.1-1-15.9,15.4-.9-2.2,2.4c-.9,1-1.4,2.3-1.3,3.7,0,1.4.7,2.6,1.8,3.5l11.6,9.7-3,3.2Z"/>
  <path class="st0" d="M64.2,294.6c-8.5,0-15.6,7-15.6,15.6v104.2c0,8.5,7,15.6,15.6,15.6h48.3v6.1c.1,2.9,2.5,5.3,5.4,5.2.9,0,1.8-.3,2.6-.7l15.8-9,8.8,15.2c1.5,2.5,4.7,3.4,7.2,1.9l15.2-8.7c2.5-1.5,3.4-4.7,2-7.2l-1.6-2.7h45.3c8.5,0,15.6-7,15.6-15.6v-104.2c0-8.5-7-15.6-15.6-15.6H64.2ZM64.2,305.2h149c2.8,0,5,2.1,5,5v15.8H59.2v-15.8c0-2.8,2.1-5,5-5ZM70.8,309.9c-3.1,0-5.7,2.6-5.7,5.7,0,3.1,2.5,5.7,5.7,5.7,3.2,0,5.7-2.5,5.7-5.7,0,0,0,0,0,0,0-3.2-2.6-5.7-5.7-5.7,0,0,0,0,0,0ZM86.4,309.9c-3.1,0-5.7,2.6-5.7,5.7,0,3.1,2.5,5.7,5.7,5.7,3.2,0,5.7-2.5,5.7-5.7,0,0,0,0,0,0,0-3.2-2.6-5.7-5.7-5.7,0,0,0,0,0,0ZM102.1,309.9c-3.1,0-5.7,2.6-5.7,5.7,0,3.1,2.5,5.7,5.7,5.7,3.2,0,5.7-2.5,5.7-5.7,0,0,0,0,0,0,0-3.2-2.6-5.7-5.7-5.7,0,0,0,0,0,0ZM59.2,336.6h159v77.8c0,2.8-2.1,5-5,5h-51.5l-1.1-1.8,18.4-10.5c2.5-1.5,3.4-4.7,2-7.2-.5-.8-1.1-1.5-1.9-1.9l-59.5-35.1c-1.6-1-3.7-1-5.4,0-1.6,1-2.6,2.7-2.6,4.6l.7,52h-48.1c-2.8,0-5-2.1-5-5v-77.8ZM122.4,376.6l43.5,25.7-15.1,8.6c-2.5,1.5-3.4,4.7-2,7.2,0,0,0,0,0,0l8.8,15.1-6,3.4-8.8-15.2c-1.5-2.5-4.7-3.4-7.2-1.9l-12.6,7.2-.7-50.3Z"/>
  <path class="st0" d="M419.1,443.7c-5.5,0-11.2-1.1-16.7-3.8l-57.5-27.1c-3.4-1.7-6.1-4.6-7.4-8.2-1.1-3.6-.9-7.6.6-11,.2-.6.8-1.1,1.5-1.5,5.9-3.6,17.7-5.3,24.5-2.3l-26.6-42.7c-2.1-3.2-2.7-7.2-1.9-10.8.8-3.6,3.2-7,6.5-8.9h0c6.6-4,15.8-2.1,19.7,4.7l11.8,19.2c.9-.9,2.1-2.1,3.2-2.7,4.4-2.7,9.7-2.8,13.9-.6,1.1-2.3,2.8-4,5.1-5.5,4.4-2.7,9.7-2.8,13.9-.6,1.1-2.3,2.8-4,5.1-5.5,3.4-2.1,7.6-2.7,11.4-1.7,3.6.9,6.6,3.2,8.5,6.5l21.1,38.3c10.2,18.8,3.6,39.1-7.6,51.1-8,8.4-18.4,13.1-29,13.1ZM344.1,397.6c-.4,1.5-.4,3,.2,4.6.6,1.9,2.1,3.2,3.6,4l57.5,27.1c15.6,7.4,29.8.6,38-8,9.3-10.1,15.2-27.1,6.5-42.7l-21.3-38.5c-.8-1.5-2.3-2.7-4-3-2.1-.6-4-.2-5.9.8-2.1,1.1-3.2,3.2-3.4,5.7-.2,1.5-.9,2.7-2.5,3.2-1.5.4-2.8,0-3.8-.9-2.3-2.7-6.3-3.2-9.3-1.5-2.1,1.1-3.2,3.2-3.4,5.7-.2,1.5-.9,2.7-2.5,3.2-1.5.4-2.8,0-3.8-.9-2.3-2.7-6.3-3.2-9.3-1.5-1.7.9-2.8,2.7-3.2,4.7-.4,1.5-1.5,2.5-2.8,2.8-1.5.2-2.8-.4-3.6-1.7l-15.2-24.5c-2.1-3.4-6.5-4.6-10.1-2.3-1.7.9-2.8,2.7-3.2,4.6-.4,1.9-.2,3.8.8,5.5l32.8,53c.8,1.5.6,3-.4,4.4-.9,1.1-2.8,1.7-4.4.8l-10.2-5.9c-4.2-1.5-12.5-.8-17.1,1.5Z"/>
  <path class="st0" d="M311.3,369.1c-.9,0-1.9-.6-2.5-1.5-.8-1.3-.2-3,1.1-3.8l19.4-10.6c1.3-.8,3-.2,3.8,1.1s.2,3-1.1,3.8l-19.4,10.6c-.4.2-.8.4-1.3.4Z"/>
  <path class="st0" d="M373.7,334.7c-.9,0-1.9-.6-2.5-1.5-.8-1.3-.2-3,1.1-3.8l19.4-10.6c1.3-.8,3-.2,3.8,1.1s.2,3-1.1,3.8l-19.4,10.6c-.4.2-.9.4-1.3.4Z"/>
  <path class="st0" d="M359.1,321.3c-.2,0-.6,0-.8-.2-1.5-.4-2.5-2.1-1.9-3.6l6.1-21.3c.4-1.5,2.1-2.5,3.6-1.9,1.5.4,2.5,2.1,1.9,3.6l-6.1,21.3c-.4,1.3-1.5,2.1-2.8,2.1Z"/>
  <path class="st0" d="M337.5,323.4c-.9,0-1.9-.6-2.5-1.3l-11.6-18.8c-.8-1.3-.4-3,.9-4,1.3-.9,3-.4,4,.9l11.6,18.8c.8,1.3.4,3-.9,4-.6.2-.9.4-1.5.4Z"/>
  <path class="st0" d="M324.9,338.4h-.8l-21.4-5.1c-1.5-.4-2.5-1.9-2.1-3.4s1.9-2.5,3.4-2.1l21.4,5.1c1.5.4,2.5,1.9,2.1,3.4-.2,1.1-1.3,2.1-2.7,2.1Z"/>
  <path class="st0" d="M430.7,148.6c-3.3,0-5.6,1.7-7,4.3v-1.8c0-5.1-4.1-9.2-9.2-9.2s-8.1,3.1-9,7.3v-7.3c0-5.1-4.1-9.2-9.2-9.2s-5.7,1.5-7.4,3.8v-26.4c0-4.7-3.8-8.6-8.6-8.6h0c-4.7,0-8.6,3.8-8.6,8.6,0,16.3.2,50.9,0,63.7-2.7-4.6-7.5-12.6-11.3-17.9-3-4.3-8-6.5-12.7-4.2-4.3,2.2-6.3,7.2-4.6,11.8,7.7,20.9,11.2,30.4,16.5,43.8,1.6,4.1,5.6,6.9,10.1,6.9h52.2c5.3,0,9.8-3.8,10.6-9.1,2.8-17.5,4.5-31.2,6.2-43.2,1.5-11.4-4.2-13.3-8.2-13.3h0ZM384.2,67.3h-8.1v18.9h8.1v-18.9ZM365.3,90.6l-12.5-12.5-5.7,5.7,12.5,12.5,5.7-5.7ZM355,107.1h-18.9v8.1h18.9v-8.1ZM405.2,115.4h18.9v-8.1h-18.9v8.1ZM413.3,83.9l-5.7-5.7-12.5,12.5,5.7,5.7,12.5-12.5Z"/>
</svg>